<svg xmlns="http://www.w3.org/2000/svg" viewBox="0 0 800 600" width="800" height="600">
<defs>
<pattern id="g" width="25" height="25" patternUnits="userSpaceOnUse"><path d="M25 0H0V25" fill="none" stroke="#12293f" stroke-width="1"/></pattern>
<linearGradient id="bg" x1="0" y1="0" x2="1" y2="1"><stop offset="0" stop-color="#0c1f33"/><stop offset="1" stop-color="#0a1a2b"/></linearGradient>
</defs>
<rect width="800" height="600" fill="url(#bg)"/><rect width="800" height="600" fill="url(#g)"/>
<g stroke="#3f88c5" stroke-width="2" fill="none" opacity=".9">
 <path d="M26 52V26h26"/><path d="M748 26h26v26"/><path d="M26 548v26h26"/><path d="M748 574h26v-26"/></g>
<text x="52" y="560" fill="#d98634" font-family="Consolas,monospace" font-size="20" letter-spacing="3">DA-03 / 2021-2023</text>
<line x1="120" y1="450" x2="690" y2="450" stroke="#3f88c5" stroke-width="1.8"/><line x1="120" y1="450" x2="120" y2="150" stroke="#3f88c5" stroke-width="1.8"/><line x1="120" y1="400" x2="690" y2="400" stroke="#16304d" stroke-width="1" stroke-dasharray="2 9"/><line x1="120" y1="350" x2="690" y2="350" stroke="#16304d" stroke-width="1" stroke-dasharray="2 9"/><line x1="120" y1="300" x2="690" y2="300" stroke="#16304d" stroke-width="1" stroke-dasharray="2 9"/><line x1="120" y1="250" x2="690" y2="250" stroke="#16304d" stroke-width="1" stroke-dasharray="2 9"/><line x1="120" y1="200" x2="690" y2="200" stroke="#16304d" stroke-width="1" stroke-dasharray="2 9"/><circle cx="307" cy="203" r="2.3" fill="#3f88c5" opacity="0.21"/><circle cx="425" cy="263" r="1.1" fill="#3f88c5" opacity="0.37"/><circle cx="149" cy="282" r="1.1" fill="#3f88c5" opacity="0.21"/><circle cx="363" cy="393" r="1.2" fill="#3f88c5" opacity="0.26"/><circle cx="476" cy="427" r="2.2" fill="#3f88c5" opacity="0.33"/><circle cx="669" cy="173" r="2.7" fill="#3f88c5" opacity="0.29"/><circle cx="208" cy="193" r="1.6" fill="#3f88c5" opacity="0.48"/><circle cx="228" cy="324" r="2.3" fill="#3f88c5" opacity="0.32"/><circle cx="431" cy="178" r="1.1" fill="#3f88c5" opacity="0.26"/><circle cx="505" cy="281" r="1.6" fill="#3f88c5" opacity="0.40"/><circle cx="379" cy="245" r="2.6" fill="#3f88c5" opacity="0.44"/><circle cx="263" cy="322" r="2.1" fill="#3f88c5" opacity="0.50"/><circle cx="532" cy="241" r="3.0" fill="#3f88c5" opacity="0.22"/><circle cx="360" cy="374" r="1.3" fill="#3f88c5" opacity="0.36"/><circle cx="150" cy="348" r="2.5" fill="#3f88c5" opacity="0.39"/><circle cx="613" cy="248" r="2.4" fill="#3f88c5" opacity="0.40"/><circle cx="449" cy="289" r="2.7" fill="#3f88c5" opacity="0.53"/><circle cx="391" cy="347" r="1.1" fill="#3f88c5" opacity="0.44"/><circle cx="487" cy="440" r="2.6" fill="#3f88c5" opacity="0.29"/><circle cx="342" cy="349" r="1.0" fill="#3f88c5" opacity="0.35"/><circle cx="221" cy="193" r="1.1" fill="#3f88c5" opacity="0.46"/><circle cx="200" cy="230" r="1.8" fill="#3f88c5" opacity="0.50"/><circle cx="173" cy="287" r="2.1" fill="#3f88c5" opacity="0.51"/><circle cx="582" cy="404" r="1.6" fill="#3f88c5" opacity="0.33"/><circle cx="327" cy="409" r="2.9" fill="#3f88c5" opacity="0.24"/><circle cx="226" cy="225" r="1.5" fill="#3f88c5" opacity="0.36"/><circle cx="454" cy="234" r="1.0" fill="#3f88c5" opacity="0.34"/><circle cx="333" cy="320" r="2.9" fill="#3f88c5" opacity="0.44"/><circle cx="414" cy="334" r="2.4" fill="#3f88c5" opacity="0.20"/><circle cx="626" cy="380" r="2.7" fill="#3f88c5" opacity="0.48"/><circle cx="345" cy="273" r="1.2" fill="#3f88c5" opacity="0.41"/><circle cx="162" cy="179" r="1.4" fill="#3f88c5" opacity="0.24"/><circle cx="316" cy="175" r="1.0" fill="#3f88c5" opacity="0.24"/><circle cx="184" cy="263" r="1.1" fill="#3f88c5" opacity="0.50"/><circle cx="468" cy="202" r="1.5" fill="#3f88c5" opacity="0.31"/><circle cx="330" cy="195" r="2.7" fill="#3f88c5" opacity="0.55"/><circle cx="386" cy="296" r="1.2" fill="#3f88c5" opacity="0.22"/><circle cx="318" cy="235" r="2.7" fill="#3f88c5" opacity="0.24"/><circle cx="141" cy="428" r="2.1" fill="#3f88c5" opacity="0.23"/><circle cx="429" cy="168" r="2.1" fill="#3f88c5" opacity="0.54"/><circle cx="606" cy="356" r="1.5" fill="#3f88c5" opacity="0.32"/><circle cx="221" cy="378" r="2.1" fill="#3f88c5" opacity="0.47"/><circle cx="311" cy="223" r="2.6" fill="#3f88c5" opacity="0.54"/><circle cx="600" cy="387" r="2.6" fill="#3f88c5" opacity="0.45"/><circle cx="254" cy="306" r="1.7" fill="#3f88c5" opacity="0.19"/><circle cx="143" cy="239" r="1.5" fill="#3f88c5" opacity="0.44"/><circle cx="658" cy="286" r="2.9" fill="#3f88c5" opacity="0.55"/><circle cx="657" cy="263" r="1.4" fill="#3f88c5" opacity="0.26"/><circle cx="237" cy="218" r="2.2" fill="#3f88c5" opacity="0.51"/><circle cx="594" cy="295" r="2.3" fill="#3f88c5" opacity="0.48"/><circle cx="175" cy="346" r="2.8" fill="#3f88c5" opacity="0.47"/><circle cx="544" cy="295" r="1.4" fill="#3f88c5" opacity="0.47"/><circle cx="312" cy="386" r="2.9" fill="#3f88c5" opacity="0.33"/><circle cx="350" cy="427" r="2.4" fill="#3f88c5" opacity="0.24"/><circle cx="198" cy="203" r="2.8" fill="#3f88c5" opacity="0.48"/><circle cx="209" cy="393" r="3.0" fill="#3f88c5" opacity="0.42"/><circle cx="322" cy="315" r="1.3" fill="#3f88c5" opacity="0.19"/><circle cx="666" cy="343" r="2.1" fill="#3f88c5" opacity="0.53"/><circle cx="368" cy="406" r="2.7" fill="#3f88c5" opacity="0.26"/><circle cx="268" cy="243" r="1.5" fill="#3f88c5" opacity="0.40"/><circle cx="272" cy="278" r="1.3" fill="#3f88c5" opacity="0.52"/><circle cx="324" cy="289" r="2.2" fill="#3f88c5" opacity="0.51"/><circle cx="361" cy="419" r="2.0" fill="#3f88c5" opacity="0.38"/><circle cx="418" cy="165" r="1.9" fill="#3f88c5" opacity="0.25"/><circle cx="130" cy="385" r="1.3" fill="#3f88c5" opacity="0.36"/><circle cx="530" cy="317" r="1.7" fill="#3f88c5" opacity="0.37"/><circle cx="436" cy="381" r="1.2" fill="#3f88c5" opacity="0.39"/><circle cx="266" cy="238" r="2.5" fill="#3f88c5" opacity="0.37"/><circle cx="439" cy="374" r="2.8" fill="#3f88c5" opacity="0.34"/><circle cx="467" cy="303" r="2.0" fill="#3f88c5" opacity="0.44"/><circle cx="379" cy="310" r="2.0" fill="#3f88c5" opacity="0.53"/><circle cx="515" cy="407" r="2.9" fill="#3f88c5" opacity="0.28"/><circle cx="438" cy="426" r="2.7" fill="#3f88c5" opacity="0.23"/><circle cx="195" cy="285" r="1.1" fill="#3f88c5" opacity="0.27"/><circle cx="169" cy="349" r="2.6" fill="#3f88c5" opacity="0.51"/><circle cx="214" cy="362" r="2.3" fill="#3f88c5" opacity="0.23"/><circle cx="617" cy="433" r="1.4" fill="#3f88c5" opacity="0.53"/><circle cx="349" cy="297" r="3.0" fill="#3f88c5" opacity="0.49"/><circle cx="217" cy="282" r="2.0" fill="#3f88c5" opacity="0.31"/><circle cx="236" cy="250" r="2.4" fill="#3f88c5" opacity="0.19"/><circle cx="435" cy="284" r="1.0" fill="#3f88c5" opacity="0.30"/><circle cx="474" cy="304" r="1.1" fill="#3f88c5" opacity="0.54"/><circle cx="565" cy="434" r="1.2" fill="#3f88c5" opacity="0.28"/><circle cx="150" cy="380" r="1.5" fill="#3f88c5" opacity="0.23"/><circle cx="362" cy="417" r="2.6" fill="#3f88c5" opacity="0.28"/><circle cx="211" cy="419" r="2.1" fill="#3f88c5" opacity="0.44"/><circle cx="178" cy="176" r="2.4" fill="#3f88c5" opacity="0.34"/><circle cx="168" cy="425" r="2.3" fill="#3f88c5" opacity="0.48"/><circle cx="174" cy="401" r="1.1" fill="#3f88c5" opacity="0.50"/><circle cx="379" cy="256" r="2.1" fill="#3f88c5" opacity="0.52"/><polyline points="120,366 140,316 159,275 179,248 199,238 218,242 238,255 258,270 277,283 297,290 317,293 336,296 356,305 376,325 395,357 415,398 434,444 454,485 474,514 493,525 513,518 533,494 552,462 572,427 592,398 611,377 631,363 651,354 670,344 690,328" fill="none" stroke="#d98634" stroke-width="2.4"/><circle cx="120" cy="366" r="4" fill="#0c1f33" stroke="#d98634" stroke-width="1.8"/><circle cx="218" cy="242" r="4" fill="#0c1f33" stroke="#d98634" stroke-width="1.8"/><circle cx="317" cy="293" r="4" fill="#0c1f33" stroke="#d98634" stroke-width="1.8"/><circle cx="415" cy="398" r="4" fill="#0c1f33" stroke="#d98634" stroke-width="1.8"/><circle cx="513" cy="518" r="4" fill="#0c1f33" stroke="#d98634" stroke-width="1.8"/><circle cx="611" cy="377" r="4" fill="#0c1f33" stroke="#d98634" stroke-width="1.8"/></svg>
