<svg xmlns="http://www.w3.org/2000/svg" viewBox="0 0 800 600" width="800" height="600">
<defs>
<pattern id="g" width="25" height="25" patternUnits="userSpaceOnUse"><path d="M25 0H0V25" fill="none" stroke="#12293f" stroke-width="1"/></pattern>
<linearGradient id="bg" x1="0" y1="0" x2="1" y2="1"><stop offset="0" stop-color="#0c1f33"/><stop offset="1" stop-color="#0a1a2b"/></linearGradient>
</defs>
<rect width="800" height="600" fill="url(#bg)"/><rect width="800" height="600" fill="url(#g)"/>
<g stroke="#3f88c5" stroke-width="2" fill="none" opacity=".9">
 <path d="M26 52V26h26"/><path d="M748 26h26v26"/><path d="M26 548v26h26"/><path d="M748 574h26v-26"/></g>
<text x="52" y="560" fill="#d98634" font-family="Consolas,monospace" font-size="20" letter-spacing="3">DA-01 / 2025</text>
<rect x="330" y="210" width="140" height="140" fill="none" stroke="#3f88c5" stroke-width="2.4"/><rect x="362" y="242" width="76" height="76" fill="#16304d" stroke="#d98634" stroke-width="1.6"/><line x1="330" y1="226" x2="230" y2="226" stroke="#1d4368" stroke-width="1.3"/><line x1="470" y1="226" x2="570" y2="226" stroke="#1d4368" stroke-width="1.3"/><line x1="346" y1="210" x2="346" y2="120" stroke="#1d4368" stroke-width="1.3"/><line x1="346" y1="350" x2="346" y2="440" stroke="#1d4368" stroke-width="1.3"/><circle cx="230" cy="226" r="3.4" fill="#3f88c5"/><circle cx="570" cy="226" r="3.4" fill="#3f88c5"/><line x1="330" y1="244" x2="230" y2="244" stroke="#1d4368" stroke-width="1.3"/><line x1="470" y1="244" x2="570" y2="244" stroke="#1d4368" stroke-width="1.3"/><line x1="364" y1="210" x2="364" y2="120" stroke="#1d4368" stroke-width="1.3"/><line x1="364" y1="350" x2="364" y2="440" stroke="#1d4368" stroke-width="1.3"/><circle cx="230" cy="244" r="3.4" fill="#3f88c5"/><circle cx="570" cy="244" r="3.4" fill="#3f88c5"/><line x1="330" y1="262" x2="230" y2="262" stroke="#1d4368" stroke-width="1.3"/><line x1="470" y1="262" x2="570" y2="262" stroke="#1d4368" stroke-width="1.3"/><line x1="382" y1="210" x2="382" y2="120" stroke="#1d4368" stroke-width="1.3"/><line x1="382" y1="350" x2="382" y2="440" stroke="#1d4368" stroke-width="1.3"/><circle cx="230" cy="262" r="3.4" fill="#3f88c5"/><circle cx="570" cy="262" r="3.4" fill="#3f88c5"/><line x1="330" y1="280" x2="230" y2="280" stroke="#1d4368" stroke-width="1.3"/><line x1="470" y1="280" x2="570" y2="280" stroke="#1d4368" stroke-width="1.3"/><line x1="400" y1="210" x2="400" y2="120" stroke="#1d4368" stroke-width="1.3"/><line x1="400" y1="350" x2="400" y2="440" stroke="#1d4368" stroke-width="1.3"/><circle cx="230" cy="280" r="3.4" fill="#3f88c5"/><circle cx="570" cy="280" r="3.4" fill="#3f88c5"/><line x1="330" y1="298" x2="230" y2="298" stroke="#1d4368" stroke-width="1.3"/><line x1="470" y1="298" x2="570" y2="298" stroke="#1d4368" stroke-width="1.3"/><line x1="418" y1="210" x2="418" y2="120" stroke="#1d4368" stroke-width="1.3"/><line x1="418" y1="350" x2="418" y2="440" stroke="#1d4368" stroke-width="1.3"/><circle cx="230" cy="298" r="3.4" fill="#3f88c5"/><circle cx="570" cy="298" r="3.4" fill="#3f88c5"/><line x1="330" y1="316" x2="230" y2="316" stroke="#1d4368" stroke-width="1.3"/><line x1="470" y1="316" x2="570" y2="316" stroke="#1d4368" stroke-width="1.3"/><line x1="436" y1="210" x2="436" y2="120" stroke="#1d4368" stroke-width="1.3"/><line x1="436" y1="350" x2="436" y2="440" stroke="#1d4368" stroke-width="1.3"/><circle cx="230" cy="316" r="3.4" fill="#3f88c5"/><circle cx="570" cy="316" r="3.4" fill="#3f88c5"/><line x1="330" y1="334" x2="230" y2="334" stroke="#1d4368" stroke-width="1.3"/><line x1="470" y1="334" x2="570" y2="334" stroke="#1d4368" stroke-width="1.3"/><line x1="454" y1="210" x2="454" y2="120" stroke="#1d4368" stroke-width="1.3"/><line x1="454" y1="350" x2="454" y2="440" stroke="#1d4368" stroke-width="1.3"/><circle cx="230" cy="334" r="3.4" fill="#3f88c5"/><circle cx="570" cy="334" r="3.4" fill="#3f88c5"/><circle cx="400" cy="280" r="112" fill="none" stroke="#16304d" stroke-width="1" stroke-dasharray="3 8"/><circle cx="400" cy="280" r="146" fill="none" stroke="#16304d" stroke-width="1" stroke-dasharray="3 8"/><circle cx="400" cy="280" r="180" fill="none" stroke="#16304d" stroke-width="1" stroke-dasharray="3 8"/></svg>
