<svg xmlns="http://www.w3.org/2000/svg" viewBox="0 0 800 600" width="800" height="600">
<defs>
<pattern id="g" width="25" height="25" patternUnits="userSpaceOnUse"><path d="M25 0H0V25" fill="none" stroke="#12293f" stroke-width="1"/></pattern>
<linearGradient id="bg" x1="0" y1="0" x2="1" y2="1"><stop offset="0" stop-color="#0c1f33"/><stop offset="1" stop-color="#0a1a2b"/></linearGradient>
</defs>
<rect width="800" height="600" fill="url(#bg)"/><rect width="800" height="600" fill="url(#g)"/>
<g stroke="#3f88c5" stroke-width="2" fill="none" opacity=".9">
 <path d="M26 52V26h26"/><path d="M748 26h26v26"/><path d="M26 548v26h26"/><path d="M748 574h26v-26"/></g>
<text x="52" y="560" fill="#d98634" font-family="Consolas,monospace" font-size="20" letter-spacing="3">DA-05 / 2020-2023</text>
<rect x="150" y="150" width="500" height="300" fill="none" stroke="#3f88c5" stroke-width="1.8"/><line x1="212" y1="150" x2="212" y2="450" stroke="#16304d" stroke-width="1"/><line x1="275" y1="150" x2="275" y2="450" stroke="#16304d" stroke-width="1"/><line x1="338" y1="150" x2="338" y2="450" stroke="#16304d" stroke-width="1"/><line x1="400" y1="150" x2="400" y2="450" stroke="#16304d" stroke-width="1"/><line x1="462" y1="150" x2="462" y2="450" stroke="#16304d" stroke-width="1"/><line x1="525" y1="150" x2="525" y2="450" stroke="#16304d" stroke-width="1"/><line x1="588" y1="150" x2="588" y2="450" stroke="#16304d" stroke-width="1"/><line x1="150" y1="210" x2="650" y2="210" stroke="#16304d" stroke-width="1"/><line x1="150" y1="270" x2="650" y2="270" stroke="#16304d" stroke-width="1"/><line x1="150" y1="330" x2="650" y2="330" stroke="#16304d" stroke-width="1"/><line x1="150" y1="390" x2="650" y2="390" stroke="#16304d" stroke-width="1"/><path d="M195 405 C300 195 470 420 600 205" fill="none" stroke="#d98634" stroke-width="2.6"/><rect x="180" y="390" width="30" height="30" fill="#0c1f33" stroke="#3f88c5" stroke-width="1.8" transform="rotate(0 195 405)"/><rect x="340" y="300" width="30" height="30" fill="#0c1f33" stroke="#3f88c5" stroke-width="1.8" transform="rotate(22 355 315)"/><rect x="480" y="367" width="30" height="30" fill="#0c1f33" stroke="#3f88c5" stroke-width="1.8" transform="rotate(44 495 382)"/><rect x="585" y="190" width="30" height="30" fill="#0c1f33" stroke="#3f88c5" stroke-width="1.8" transform="rotate(66 600 205)"/><circle cx="600" cy="205" r="26" fill="none" stroke="#d98634" stroke-width="1.3" stroke-dasharray="3 6"/></svg>
